<?xml version="1.0" encoding="UTF-8"?>
<svg version="1.1" xmlns="http://www.w3.org/2000/svg" width="500" height="500">
<path d="M0 0 C0.76570312 0.48984375 1.53140625 0.9796875 2.3203125 1.484375 C3.54427734 2.18240234 3.54427734 2.18240234 4.79296875 2.89453125 C14.90066249 9.34333133 24.33182289 16.35804249 33.14453125 24.49609375 C34.89032624 26.09144321 36.65319352 27.58373232 38.5078125 29.046875 C41.45629333 31.60222505 43.90310988 34.31152693 46.421875 37.28125 C47.69529408 38.75904498 49.00370301 40.20734411 50.34375 41.625 C62.30264453 54.31783391 71.34442234 69.05689902 79.3203125 84.484375 C79.64338379 85.09925781 79.96645508 85.71414062 80.29931641 86.34765625 C94.50802955 113.68900933 100.54468096 144.62770568 100.5703125 175.234375 C100.57098724 175.9622522 100.57166199 176.69012939 100.57235718 177.44006348 C100.55397247 189.98908715 99.75296503 202.14548673 97.3203125 214.484375 C97.14870605 215.3594873 96.97709961 216.23459961 96.80029297 217.13623047 C89.42403292 253.42426582 72.27738686 285.96445663 47.34375 313.23828125 C45.74619322 315.01163096 44.23647758 316.80121482 42.7578125 318.671875 C39.57668137 322.34241092 36.02640552 325.35624183 32.3203125 328.484375 C31.30136315 329.36505285 30.28318494 330.2466234 29.265625 331.12890625 C23.42335548 336.16324853 17.66788281 340.83290941 11.05078125 344.8515625 C10.19419922 345.65980469 10.19419922 345.65980469 9.3203125 346.484375 C9.3203125 348.134375 9.3203125 349.784375 9.3203125 351.484375 C115.7453125 351.979375 115.7453125 351.979375 224.3203125 352.484375 C219.11965125 365.48602813 210.19971633 376.7772176 201.3203125 387.484375 C200.62083496 388.33829834 200.62083496 388.33829834 199.90722656 389.20947266 C188.93619808 402.56370671 176.97394348 414.85845597 163.3203125 425.484375 C162.32515625 426.30808594 161.33 427.13179688 160.3046875 427.98046875 C108.05860426 470.96665136 38.74258135 488.65336606 -27.99365234 482.5390625 C-55.32171133 479.64312506 -81.60195017 472.607753 -106.6796875 461.484375 C-107.51129395 461.11940918 -108.34290039 460.75444336 -109.19970703 460.37841797 C-134.18167427 449.32229351 -156.26081714 433.93053546 -176.40234375 415.5390625 C-178.3534491 413.77871702 -180.33982294 412.09253177 -182.3671875 410.421875 C-185.48301386 407.76979954 -188.10751698 404.84078622 -190.75 401.72265625 C-192.88845045 399.24222688 -195.12603753 396.87230955 -197.3671875 394.484375 C-226.6796875 362.20071388 -226.6796875 362.20071388 -226.6796875 352.484375 C-155.3996875 352.484375 -84.1196875 352.484375 -10.6796875 352.484375 C-10.6796875 350.504375 -10.6796875 348.524375 -10.6796875 346.484375 C-11.72769531 346.12859375 -11.72769531 346.12859375 -12.796875 345.765625 C-16.1759461 344.26381562 -18.91965829 342.25521702 -21.8046875 339.984375 C-22.36945801 339.54512695 -22.93422852 339.10587891 -23.51611328 338.65332031 C-28.29689423 334.88713179 -32.79396071 330.87261644 -37.25 326.7265625 C-39.26531386 324.86677125 -41.31266105 323.10004119 -43.4296875 321.359375 C-47.27352658 318.08802259 -50.43937145 314.34126941 -53.6796875 310.484375 C-54.78957031 309.22367187 -54.78957031 309.22367187 -55.921875 307.9375 C-87.5448228 271.36399488 -103.89198945 224.77894021 -103.9296875 176.734375 C-103.93036224 175.95947723 -103.93103699 175.18457947 -103.93173218 174.38619995 C-103.86356346 124.93329667 -86.06919096 77.26193102 -52.6796875 40.484375 C-51.73112958 39.41593354 -50.78322391 38.3469127 -49.8359375 37.27734375 C-44.77651785 31.60996234 -39.59786633 26.26601776 -33.6796875 21.484375 C-32.68710938 20.66582031 -31.69453125 19.84726562 -30.671875 19.00390625 C-24.20911103 13.7456178 -17.52671018 8.82749719 -10.6171875 4.171875 C-9.90312744 3.67333008 -9.18906738 3.17478516 -8.45336914 2.66113281 C-3.4051981 -0.65522762 -3.4051981 -0.65522762 0 0 Z " fill="#FDBD5A" transform="translate(250.6796875,8.515625)"/>
<path d="M0 0 C5.94 0 11.88 0 18 0 C18.33 33.99 18.66 67.98 19 103 C125.425 103.495 125.425 103.495 234 104 C228.79933875 117.00165313 219.87940383 128.2928426 211 139 C210.30052246 139.85392334 210.30052246 139.85392334 209.58691406 140.72509766 C198.61588558 154.07933171 186.65363098 166.37408097 173 177 C172.00484375 177.82371094 171.0096875 178.64742187 169.984375 179.49609375 C117.73829176 222.48227636 48.42226885 240.16899106 -18.31396484 234.0546875 C-45.64202383 231.15875006 -71.92226267 224.123378 -97 213 C-98.24740967 212.45255127 -98.24740967 212.45255127 -99.52001953 211.89404297 C-124.50198677 200.83791851 -146.58112964 185.44616046 -166.72265625 167.0546875 C-168.6737616 165.29434202 -170.66013544 163.60815677 -172.6875 161.9375 C-175.80332636 159.28542454 -178.42782948 156.35641122 -181.0703125 153.23828125 C-183.20876295 150.75785188 -185.44635003 148.38793455 -187.6875 146 C-217 113.71633888 -217 113.71633888 -217 104 C-145.39 104 -73.78 104 0 104 C0 69.68 0 35.36 0 0 Z " fill="#9A3E04" transform="translate(241,257)"/>
<path d="M0 0 C0 61.71 0 123.42 0 187 C-5.61 187.99 -11.22 188.98 -17 190 C-25.13348717 192.98227863 -31.69345009 195.91994817 -38.23046875 201.58203125 C-40 203 -40 203 -43 204 C-43.71075468 205.31036255 -44.36921448 206.64932171 -45 208 C-46.25222601 209.68069187 -47.52523098 211.34599468 -48.8125 213 C-59.33617541 227.27393065 -61.07651735 243.91064061 -58.69970703 261.18212891 C-57.11826951 268.89188862 -53.42843121 275.5830742 -49 282 C-48.51015625 282.75925781 -48.0203125 283.51851563 -47.515625 284.30078125 C-38.06120994 297.85054937 -22.65650114 304.15336343 -7 307 C-7 321.52 -7 336.04 -7 351 C-7.33 351 -7.66 351 -8 351 C-8 349.02 -8 347.04 -8 345 C-9.04800781 344.64421875 -9.04800781 344.64421875 -10.1171875 344.28125 C-13.4962586 342.77944062 -16.23997079 340.77084202 -19.125 338.5 C-19.68977051 338.06075195 -20.25454102 337.62150391 -20.83642578 337.16894531 C-25.61720673 333.40275679 -30.11427321 329.38824144 -34.5703125 325.2421875 C-36.58562636 323.38239625 -38.63297355 321.61566619 -40.75 319.875 C-44.59383908 316.60364759 -47.75968395 312.85689441 -51 309 C-52.10988281 307.73929687 -52.10988281 307.73929687 -53.2421875 306.453125 C-84.8651353 269.87961988 -101.21230195 223.29456521 -101.25 175.25 C-101.25067474 174.47510223 -101.25134949 173.70020447 -101.25204468 172.90182495 C-101.18387596 123.44892167 -83.38950346 75.77755602 -50 39 C-49.05144208 37.93155854 -48.10353641 36.8625377 -47.15625 35.79296875 C-42.09777016 30.12664009 -36.92264852 24.77469092 -31 20 C-30.25194092 19.39140137 -30.25194092 19.39140137 -29.48876953 18.77050781 C-6.34658477 -0 -6.34658477 -0 0 0 Z " fill="#FE914D" transform="translate(248,10)"/>
<path d="M0 0 C12.37658055 9.42977566 19.20259396 20.07511112 23.1015625 35 C23.40320313 35.97066406 23.40320313 35.97066406 23.7109375 36.9609375 C26.05836964 49.21453326 23.81590671 62.64271621 19.1015625 74 C18.4415625 74 17.7815625 74 17.1015625 74 C16.9984375 74.70125 16.8953125 75.4025 16.7890625 76.125 C16.00797247 79.39137647 14.68097507 82.0471852 13.1015625 85 C12.4415625 85 11.7815625 85 11.1015625 85 C10.71484375 85.88945312 10.71484375 85.88945312 10.3203125 86.796875 C9.00386355 89.17660965 7.67575468 90.50978792 5.6015625 92.25 C4.993125 92.77078125 4.3846875 93.2915625 3.7578125 93.828125 C2.1015625 95 2.1015625 95 0.1015625 95 C0.1015625 95.66 0.1015625 96.32 0.1015625 97 C-8.72130202 103.60662828 -17.7167517 108 -28.8984375 108 C-28.8984375 88.2 -28.8984375 68.4 -28.8984375 48 C-34.8384375 48 -40.7784375 48 -46.8984375 48 C-46.8984375 67.8 -46.8984375 87.6 -46.8984375 108 C-60.62837868 108 -72.680647 100.87879768 -82.8984375 92 C-84.66474724 89.94248049 -86.33226974 87.90882244 -87.9609375 85.75 C-88.39994385 85.17008301 -88.8389502 84.59016602 -89.29125977 83.99267578 C-97.31019513 73.21558739 -100.47894146 62.05715757 -100.3359375 48.625 C-100.32836426 47.62057861 -100.32079102 46.61615723 -100.31298828 45.58129883 C-100.04551824 33.49536222 -96.83257461 23.9771757 -89.8984375 14 C-89.35058594 13.2059375 -88.80273438 12.411875 -88.23828125 11.59375 C-84.39841413 6.34564004 -80.33344341 2.54113816 -74.8984375 -1 C-74.13660156 -1.51433594 -73.37476563 -2.02867187 -72.58984375 -2.55859375 C-49.99927625 -17.05270186 -21.59026443 -14.89786441 0 0 Z " fill="#FEDD59" transform="translate(287.8984375,209)"/>
<path d="M0 0 C5.94 0 11.88 0 18 0 C18 34.32 18 68.64 18 104 C12.06 104 6.12 104 0 104 C0 69.68 0 35.36 0 0 Z " fill="#582100" transform="translate(241,257)"/>
<path d="M0 0 C72.6 0 145.2 0 220 0 C220 0.33 220 0.66 220 1 C150.37 1.33 80.74 1.66 9 2 C8.67 2.66 8.34 3.32 8 4 C7.34 3.67 6.68 3.34 6 3 C7.44950455 6.7910119 9.15172566 10.3874638 11 14 C10.01 14 9.02 14 8 14 C6.45292515 11.87314185 5.12377647 9.82700096 3.8125 7.5625 C3.44447266 6.95083984 3.07644531 6.33917969 2.69726562 5.70898438 C0 1.18018031 0 1.18018031 0 0 Z " fill="#814620" transform="translate(24,361)"/>
<path d="M0 0 C106.92 0.495 106.92 0.495 216 1 C215.34 2.65 214.68 4.3 214 6 C213.67 4.68 213.34 3.36 213 2 C142.71 2 72.42 2 0 2 C0 1.34 0 0.68 0 0 Z " fill="#814722" transform="translate(259,360)"/>
<path d="M0 0 C2.31 0.33 4.62 0.66 7 1 C6.67 1.66 6.34 2.32 6 3 C8.31 3.33 10.62 3.66 13 4 C13 4.99 13 5.98 13 7 C13.66 7.33 14.32 7.66 15 8 C14.67 8.66 14.34 9.32 14 10 C16.97 10.495 16.97 10.495 20 11 C20 11.99 20 12.98 20 14 C20.66 14.33 21.32 14.66 22 15 C22.99 16.485 22.99 16.485 24 18 C23.67 18.99 23.34 19.98 23 21 C5.39882148 6.24039105 5.39882148 6.24039105 0 1 C0 0.67 0 0.34 0 0 Z " fill="#AE6E47" transform="translate(65,415)"/>
<path d="M0 0 C0.66 0 1.32 0 2 0 C0.56574779 4.14423403 -1.46355766 7.21464232 -4.125 10.6875 C-5.31996094 12.24791016 -5.31996094 12.24791016 -6.5390625 13.83984375 C-7.35840779 14.89398166 -8.17871097 15.94737577 -9 17 C-9.77085937 17.99128906 -10.54171875 18.98257812 -11.3359375 20.00390625 C-15.34901462 25.09631278 -15.34901462 25.09631278 -17 27 C-17.33 27 -17.66 27 -18 27 C-18 25.35 -18 23.7 -18 22 C-16.68 21.67 -15.36 21.34 -14 21 C-13.938125 20.05125 -13.87625 19.1025 -13.8125 18.125 C-13.4103125 16.578125 -13.4103125 16.578125 -13 15 C-10.4375 13.625 -10.4375 13.625 -8 13 C-8 11.35 -8 9.7 -8 8 C-7.01 8 -6.02 8 -5 8 C-4.67 7.01 -4.34 6.02 -4 5 C-3.34 5 -2.68 5 -2 5 C-2 4.01 -2 3.02 -2 2 C-1.34 2 -0.68 2 0 2 C0 1.34 0 0.68 0 0 Z " fill="#B17650" transform="translate(465,374)"/>
<path d="M0 0 C2.97 0.495 2.97 0.495 6 1 C5.34 2.32 4.68 3.64 4 5 C6.64 5.33 9.28 5.66 12 6 C12 6.33 12 6.66 12 7 C5.4219574 7.37322228 -0.54796264 5.96749151 -6.9375 4.5 C-8.00291016 4.26152344 -9.06832031 4.02304687 -10.16601562 3.77734375 C-12.77890813 3.19149341 -15.39007007 2.59888542 -18 2 C-18 1.67 -18 1.34 -18 1 C-12.06 1 -6.12 1 0 1 C0 0.67 0 0.34 0 0 Z " fill="#A9673D" transform="translate(202,482)"/>
<path d="M0 0 C1.8253125 0.0309375 1.8253125 0.0309375 3.6875 0.0625 C0.63999241 1.76089224 -2.09318233 2.53696379 -5.5234375 3.1328125 C-7.02003906 3.39384766 -7.02003906 3.39384766 -8.546875 3.66015625 C-9.58328125 3.83417969 -10.6196875 4.00820313 -11.6875 4.1875 C-13.23050781 4.46013672 -13.23050781 4.46013672 -14.8046875 4.73828125 C-19.68464607 5.5746659 -24.34048943 6.3187892 -29.3125 6.0625 C-29.3125 5.4025 -29.3125 4.7425 -29.3125 4.0625 C-25.57055739 2.8151858 -21.8377092 2.48414424 -17.9375 2.0625 C-12.21466767 1.45490838 -12.21466767 1.45490838 -6.54296875 0.50390625 C-4.29858609 0.05974646 -2.28331662 -0.03870028 0 0 Z " fill="#B78361" transform="translate(308.3125,483.9375)"/>
<path d="M0 0 C0.33 0 0.66 0 1 0 C1.21177017 4.4471735 0.85415258 7.92086433 -1 12 C-3.125 13.375 -3.125 13.375 -5 14 C-4.773125 14.721875 -4.54625 15.44375 -4.3125 16.1875 C-3.91022698 19.80795714 -4.79522708 21.16529197 -7 24 C-7.99 24.33 -8.98 24.66 -10 25 C-7.80829335 16.1288064 -3.97839741 8.17478919 0 0 Z " fill="#F6AF80" transform="translate(168,93)"/>
<path d="M0 0 C1.98 0.66 3.96 1.32 6 2 C6 1.34 6 0.68 6 0 C6.99 0.33 7.98 0.66 9 1 C-0.41002278 8.48291572 -0.41002278 8.48291572 -5 11 C-5 9.68 -5 8.36 -5 7 C-4.01 7 -3.02 7 -2 7 C-2.226875 6.401875 -2.45375 5.80375 -2.6875 5.1875 C-2.790625 4.465625 -2.89375 3.74375 -3 3 C-1.5625 1.25 -1.5625 1.25 0 0 Z " fill="#F8CA81" transform="translate(264,344)"/>
<path d="M0 0 C2.31 0 4.62 0 7 0 C7.66 1.32 8.32 2.64 9 4 C8.01 3.67 7.02 3.34 6 3 C7.44950455 6.7910119 9.15172566 10.3874638 11 14 C10.01 14 9.02 14 8 14 C6.45292515 11.87314185 5.12377647 9.82700096 3.8125 7.5625 C3.44447266 6.95083984 3.07644531 6.33917969 2.69726562 5.70898438 C0 1.18018031 0 1.18018031 0 0 Z " fill="#9C5B30" transform="translate(24,361)"/>
<path d="M0 0 C0.33 0.99 0.66 1.98 1 3 C-2.57974434 9.13670458 -5.60453989 12.01545195 -12 15 C-10.38462556 11.10082032 -7.72075127 8.28706228 -4.875 5.25 C-4.40707031 4.74339844 -3.93914062 4.23679687 -3.45703125 3.71484375 C-2.30873459 2.47280859 -1.15491328 1.23588506 0 0 Z " fill="#F5B082" transform="translate(201,46)"/>
<path d="M0 0 C3.90455937 1.42502167 7.24835962 3.26652127 10.75 5.5 C11.71421875 6.1084375 12.6784375 6.716875 13.671875 7.34375 C16 9 16 9 17 11 C15.02 11 13.04 11 11 11 C11 10.34 11 9.68 11 9 C10.34 8.67 9.68 8.34 9 8 C8.34 7.34 7.68 6.68 7 6 C4.42938689 5.35232207 4.42938689 5.35232207 2 5 C2 4.01 2 3.02 2 2 C0.35 2.33 -1.3 2.66 -3 3 C-2.01 2.01 -1.02 1.02 0 0 Z " fill="#F8D292" transform="translate(248,8)"/>
<path d="M0 0 C5.11476819 -0.63934602 8.67254378 1.59466453 13 4 C13 4.66 13 5.32 13 6 C15.97 6.495 15.97 6.495 19 7 C19 7.99 19 8.98 19 10 C14.37324343 8.6077541 10.35313769 6.70479016 6.125 4.375 C4.97257812 3.74335938 3.82015625 3.11171875 2.6328125 2.4609375 C1.32957031 1.73777344 1.32957031 1.73777344 0 1 C0 0.67 0 0.34 0 0 Z " fill="#B3805B" transform="translate(120,457)"/>
<path d="M0 0 C0.66 0.33 1.32 0.66 2 1 C0.29712826 2.79249657 -1.42980939 4.3393232 -3.375 5.875 C-6.11094028 8.0898088 -8.54788441 10.47782396 -11 13 C-11.99 12.67 -12.98 12.34 -14 12 C-9.64471355 7.5202768 -5.01165947 3.71234035 0 0 Z " fill="#FED15F" transform="translate(217,205)"/>
<path d="M0 0 C0.66 0.33 1.32 0.66 2 1 C1.67 2.65 1.34 4.3 1 6 C0.484375 6.0825 -0.03125 6.165 -0.5625 6.25 C-2.89918732 6.96898071 -4.54716773 7.86702222 -6.625 9.125 C-7.73875 9.74375 -8.8525 10.3625 -10 11 C-10.66 10.67 -11.32 10.34 -12 10 C-8.04 6.7 -4.08 3.4 0 0 Z " fill="#F6B285" transform="translate(228,21)"/>
<path d="M0 0 C0.66 0.33 1.32 0.66 2 1 C1.16855469 1.54269531 0.33710938 2.08539063 -0.51953125 2.64453125 C-1.60621094 3.35996094 -2.69289062 4.07539063 -3.8125 4.8125 C-4.89144531 5.52019531 -5.97039062 6.22789062 -7.08203125 6.95703125 C-9.92036471 8.81836303 -9.92036471 8.81836303 -11.76171875 10.76171875 C-12.17035156 11.17035156 -12.57898438 11.57898438 -13 12 C-13.66 12 -14.32 12 -15 12 C-15.66 13.32 -16.32 14.64 -17 16 C-17 13 -17 13 -15 10.6875 C-10.61569443 6.56550331 -5.61796336 2.27755271 0 0 Z " fill="#F59C44" transform="translate(220,202)"/>
<path d="M0 0 C2.26223894 3.39335841 2.83862411 6.02477632 3.6875 10 C4.09548828 11.85625 4.09548828 11.85625 4.51171875 13.75 C5 17 5 17 4 20 C2.50178941 16.62902617 2 14.79557881 2 11 C1.34 11 0.68 11 0 11 C0 7.37 0 3.74 0 0 Z " fill="#F8D297" transform="translate(343,129)"/>
<path d="M0 0 C-2.61941645 2.61941645 -4.42972479 2.54724345 -8.0625 3.0625 C-11.84863663 3.31267471 -11.84863663 3.31267471 -15 5 C-16.99958364 5.04080783 -19.00045254 5.04254356 -21 5 C-16.11051327 0.11051327 -6.67562708 -0.45515639 0 0 Z " fill="#FECE5F" transform="translate(247,197)"/>
<path d="M0 0 C2.3431213 0.25561323 4.67843403 0.59270772 7 1 C7.33 1.66 7.66 2.32 8 3 C8.99 3.33 9.98 3.66 11 4 C11 6.97 11 9.94 11 13 C10.67 13 10.34 13 10 13 C10 11.02 10 9.04 10 7 C9.278125 6.773125 8.55625 6.54625 7.8125 6.3125 C4.46790687 4.75168987 2.48396041 2.6968713 0 0 Z " fill="#F6B388" transform="translate(230,348)"/>
<path d="M0 0 C0.33 0.99 0.66 1.98 1 3 C1.66 3.33 2.32 3.66 3 4 C3.99 5.485 3.99 5.485 5 7 C4.67 7.99 4.34 8.98 4 10 C2.84775972 9.07038578 1.70340824 8.1309875 0.5625 7.1875 C-0.39462891 6.40439453 -0.39462891 6.40439453 -1.37109375 5.60546875 C-3 4 -3 4 -4 1 C-2.68 0.67 -1.36 0.34 0 0 Z " fill="#A3643C" transform="translate(84,426)"/>
<path d="M0 0 C0.33 0 0.66 0 1 0 C0.54775239 5.91492272 -0.1582605 11.35199888 -2 17 C-2.66 17 -3.32 17 -4 17 C-3.45018084 10.95198929 -2.09570426 5.69398894 0 0 Z " fill="#F2B489" transform="translate(157,119)"/>
<path d="M0 0 C-2.9643761 1.97625073 -5.78787746 3.29886906 -9.0625 4.6875 C-10.12597656 5.14511719 -11.18945312 5.60273438 -12.28515625 6.07421875 C-13.18105469 6.37972656 -14.07695312 6.68523437 -15 7 C-15.66 6.67 -16.32 6.34 -17 6 C-16.67 5.34 -16.34 4.68 -16 4 C-14.35 4 -12.7 4 -11 4 C-11 3.34 -11 2.68 -11 2 C-7.17679443 0.57741188 -4.08718695 -0.24042276 0 0 Z " fill="#B37B54" transform="translate(356,469)"/>
<path d="M0 0 C-3.7935871 3.21880117 -7.65829477 5.6163187 -12 8 C-12 5 -12 5 -9.375 2.3125 C-6.25682907 -0.16718831 -4.00290815 -0.47653668 0 0 Z " fill="#AC6F4B" transform="translate(403,442)"/>
<path d="M0 0 C0.66 0.33 1.32 0.66 2 1 C1.67 1.99 1.34 2.98 1 4 C0.21625 4.103125 -0.5675 4.20625 -1.375 4.3125 C-4.33045181 4.77595022 -4.33045181 4.77595022 -6 8 C-9.625 9.1875 -9.625 9.1875 -13 10 C-9.23156953 5.87827917 -5.11095695 2.36931779 0 0 Z " fill="#F4BA91" transform="translate(243,11)"/>
<path d="M0 0 C1.875 0.5625 1.875 0.5625 4 2 C5.125 5.3125 5.125 5.3125 6 9 C6.64199649 10.67632417 7.29894157 12.34750513 8 14 C4.32770991 10.62546316 1.91051157 7.62544907 0 3 C0 2.01 0 1.02 0 0 Z " fill="#FFD261" transform="translate(192,279)"/>
<path d="M0 0 C2.47186455 2.96346786 3.66248361 5.54041689 4.6875 9.25 C4.93886719 10.14203125 5.19023437 11.0340625 5.44921875 11.953125 C5.72185547 12.96632813 5.72185547 12.96632813 6 14 C5.01 13.67 4.02 13.34 3 13 C2.05078125 11.07421875 2.05078125 11.07421875 1.3125 8.6875 C0.93544922 7.51767578 0.93544922 7.51767578 0.55078125 6.32421875 C0 4 0 4 0 0 Z " fill="#F7D294" transform="translate(332,99)"/>
<path d="M0 0 C0.66 0 1.32 0 2 0 C2 1.65 2 3.3 2 5 C2.66 5.33 3.32 5.66 4 6 C3.67 6.99 3.34 7.98 3 9 C1.66382648 8.02471263 0.3311249 7.04466681 -1 6.0625 C-1.7425 5.51722656 -2.485 4.97195313 -3.25 4.41015625 C-3.8275 3.94480469 -4.405 3.47945313 -5 3 C-5 2.67 -5 2.34 -5 2 C-3.35 2 -1.7 2 0 2 C0 1.34 0 0.68 0 0 Z " fill="#AB6B41" transform="translate(94,434)"/>
<path d="M0 0 C0.99 0.33 1.98 0.66 3 1 C1.85760183 2.33627775 0.71098945 3.66895388 -0.4375 5 C-1.07558594 5.7425 -1.71367187 6.485 -2.37109375 7.25 C-3.17740234 8.11625 -3.17740234 8.11625 -4 9 C-4.33 9 -4.66 9 -5 9 C-5.3125 6.75 -5.3125 6.75 -5 4 C-2.6875 1.625 -2.6875 1.625 0 0 Z " fill="#F7CF8E" transform="translate(302,313)"/>
<path d="M0 0 C0.66 0 1.32 0 2 0 C2 0.66 2 1.32 2 2 C2.99 2.33 3.98 2.66 5 3 C6.75 5.875 6.75 5.875 8 9 C7.67 9.99 7.34 10.98 7 12 C5.83061933 10.18924982 4.66456267 8.37635257 3.5 6.5625 C2.8503125 5.55316406 2.200625 4.54382813 1.53125 3.50390625 C0 1 0 1 0 0 Z " fill="#F5B68C" transform="translate(174,286)"/>
<path d="M0 0 C0.99 0 1.98 0 3 0 C1.68938409 4.23429756 0.05643741 8.07407404 -2 12 C-2.33 12 -2.66 12 -3 12 C-3 10.02 -3 8.04 -3 6 C-2.34 6 -1.68 6 -1 6 C-0.67 4.02 -0.34 2.04 0 0 Z " fill="#F8D093" transform="translate(331,266)"/>
<path d="M0 0 C0.33 0.66 0.66 1.32 1 2 C1.66 2 2.32 2 3 2 C4.10228696 6.40914783 4.07654536 10.48382401 4 15 C2.25674553 12.3851183 1.58412043 10.9946567 0.875 8.0625 C0.70742187 7.39347656 0.53984375 6.72445312 0.3671875 6.03515625 C0 4 0 4 0 0 Z " fill="#F4B98D" transform="translate(152,229)"/>
<path d="M0 0 C0.66 1.32 1.32 2.64 2 4 C1.01 5.485 1.01 5.485 0 7 C-0.66 7 -1.32 7 -2 7 C-2.33 8.32 -2.66 9.64 -3 11 C-3.66 11 -4.32 11 -5 11 C-3.77472971 6.94718288 -2.30119506 3.55639236 0 0 Z " fill="#F5B086" transform="translate(174,82)"/>
<path d="M0 0 C2.31 0.66 4.62 1.32 7 2 C7.33 3.65 7.66 5.3 8 7 C7.01 7 6.02 7 5 7 C3.61328125 5.46875 3.61328125 5.46875 2.3125 3.5 C1.87550781 2.8503125 1.43851563 2.200625 0.98828125 1.53125 C0.49908203 0.77328125 0.49908203 0.77328125 0 0 Z " fill="#AB714D" transform="translate(45,392)"/>
<path d="M0 0 C0.763125 0.20625 1.52625 0.4125 2.3125 0.625 C2.126875 1.24375 1.94125 1.8625 1.75 2.5 C1.07563824 4.66660178 1.07563824 4.66660178 2.3125 6.625 C-1.06253669 5.4391763 -3.33472731 4.34926311 -5.6875 1.625 C-2.6875 -0.375 -2.6875 -0.375 0 0 Z " fill="#B37449" transform="translate(117.6875,450.375)"/>
<path d="M0 0 C1.65 0 3.3 0 5 0 C3.02 2.31 1.04 4.62 -1 7 C-1.66 6.01 -2.32 5.02 -3 4 C-2.67 3.34 -2.34 2.68 -2 2 C-1.34 2.33 -0.68 2.66 0 3 C0 2.01 0 1.02 0 0 Z " fill="#AE6F46" transform="translate(428,416)"/>
<path d="M0 0 C1.14926266 0.95421808 2.29430541 1.91352045 3.4375 2.875 C4.07558594 3.40867187 4.71367187 3.94234375 5.37109375 4.4921875 C7 6 7 6 8 8 C6.35 8 4.7 8 3 8 C3 6.68 3 5.36 3 4 C2.01 4 1.02 4 0 4 C0 2.68 0 1.36 0 0 Z " fill="#F8D091" transform="translate(278,28)"/>
<path d="M0 0 C0.99 0.33 1.98 0.66 3 1 C3.33 4.63 3.66 8.26 4 12 C2.09681116 9.14521674 1.5380901 7.58058692 0.875 4.3125 C0.70742187 3.50425781 0.53984375 2.69601563 0.3671875 1.86328125 C0.24601563 1.24839844 0.12484375 0.63351563 0 0 Z " fill="#F4B589" transform="translate(156,244)"/>
<path d="M0 0 C2.31 1.98 4.62 3.96 7 6 C6.34 7.32 5.68 8.64 5 10 C5 8.68 5 7.36 5 6 C3.68 6 2.36 6 1 6 C0.67 4.02 0.34 2.04 0 0 Z " fill="#F6CF8F" transform="translate(296,46)"/>
<path d="M0 0 C-0.33 0.66 -0.66 1.32 -1 2 C-3.06640625 2.4140625 -3.06640625 2.4140625 -5.5625 2.625 C-6.38878906 2.69976562 -7.21507812 2.77453125 -8.06640625 2.8515625 C-9.02353516 2.92503906 -9.02353516 2.92503906 -10 3 C-10 2.34 -10 1.68 -10 1 C-6.52674819 -0.1577506 -3.63932552 -0.06866652 0 0 Z " fill="#A6653B" transform="translate(289,487)"/>
<path d="M0 0 C7.38461538 -0.49230769 7.38461538 -0.49230769 10.5 2 C10.995 2.66 11.49 3.32 12 4 C7.80530429 3.40075776 3.99000166 2.42500059 0 1 C0 0.67 0 0.34 0 0 Z " fill="#B3805C" transform="translate(158,475)"/>
<path d="M0 0 C3.40320742 1.01176437 4.75725331 1.64843582 6.8125 4.625 C7.204375 5.40875 7.59625 6.1925 8 7 C7.01 7 6.02 7 5 7 C0 1.53488372 0 1.53488372 0 0 Z " fill="#B27854" transform="translate(52,400)"/>
<path d="M0 0 C3.29148243 1.13499394 3.9959869 1.99283376 5.75 5.125 C6.1625 6.07375 6.575 7.0225 7 8 C6.01 8 5.02 8 4 8 C0 2.74285714 0 2.74285714 0 0 Z " fill="#AE744C" transform="translate(28,367)"/>
<path d="M0 0 C2.125 0.9375 2.125 0.9375 4 2 C2.71034824 3.37562854 1.37310707 4.70766393 0 6 C-0.66 6 -1.32 6 -2 6 C-2 4.35 -2 2.7 -2 1 C-1.34 0.67 -0.68 0.34 0 0 Z " fill="#F9CB82" transform="translate(275,338)"/>
<path d="M0 0 C0 4.24645065 -1.81750806 6.38524772 -4 10 C-4.33 10 -4.66 10 -5 10 C-5 7.69 -5 5.38 -5 3 C-4.01 3.33 -3.02 3.66 -2 4 C-2 3.01 -2 2.02 -2 1 C-1.34 0.67 -0.68 0.34 0 0 Z " fill="#F6D08E" transform="translate(322,287)"/>
<path d="M0 0 C0.99 0.33 1.98 0.66 3 1 C1.90931332 4.77545388 1.0916909 7.47043472 -2 10 C-2.33 9.01 -2.66 8.02 -3 7 C-2.01 6.67 -1.02 6.34 0 6 C0 4.02 0 2.04 0 0 Z " fill="#F7D38F" transform="translate(325,277)"/>
<path d="M0 0 C2.64 0 5.28 0 8 0 C8.66 1.32 9.32 2.64 10 4 C6.7 3.01 3.4 2.02 0 1 C0 0.67 0 0.34 0 0 Z " fill="#B07A55" transform="translate(148,471)"/>
<path d="M0 0 C0.66 0 1.32 0 2 0 C2 0.66 2 1.32 2 2 C3.32 2.33 4.64 2.66 6 3 C1.25 6 1.25 6 -1 6 C-0.67 4.02 -0.34 2.04 0 0 Z " fill="#AC6C41" transform="translate(382,450)"/>
<path d="M0 0 C0.99 0 1.98 0 3 0 C1.8141763 3.37503669 0.72426311 5.64722731 -2 8 C-2 6.35 -2 4.7 -2 3 C-1.34 3 -0.68 3 0 3 C0 2.01 0 1.02 0 0 Z " fill="#B07853" transform="translate(469,366)"/>
<path d="M0 0 C2.97 0 5.94 0 9 0 C9.33 0.99 9.66 1.98 10 3 C3.375 2.25 3.375 2.25 0 0 Z " fill="#B17650" transform="translate(170,479)"/>
<path d="M0 0 C2.31 0.33 4.62 0.66 7 1 C7.33 2.32 7.66 3.64 8 5 C4.62496331 3.8141763 2.35277269 2.72426311 0 0 Z " fill="#B0734D" transform="translate(98,443)"/>
<path d="M0 0 C1.65 0 3.3 0 5 0 C3.35 1.98 1.7 3.96 0 6 C-1.125 2.25 -1.125 2.25 0 0 Z " fill="#B1754D" transform="translate(434,410)"/>
<path d="M0 0 C3.63 0 7.26 0 11 0 C10.34 1.65 9.68 3.3 9 5 C8.67 3.68 8.34 2.36 8 1 C5.36 1 2.72 1 0 1 C0 0.67 0 0.34 0 0 Z " fill="#966847" transform="translate(464,361)"/>
<path d="M0 0 C1.125 3.75 1.125 3.75 0 6 C-0.66 6 -1.32 6 -2 6 C-2 6.66 -2 7.32 -2 8 C-2.66 8 -3.32 8 -4 8 C-2.87548273 5.0280615 -1.77706209 2.66559313 0 0 Z " fill="#F3B890" transform="translate(179,74)"/>
<path d="M0 0 C1.32 0 2.64 0 4 0 C4 2.97 4 5.94 4 9 C3.67 9 3.34 9 3 9 C3 7.02 3 5.04 3 3 C2.01 2.67 1.02 2.34 0 2 C0 1.34 0 0.68 0 0 Z " fill="#F2C19D" transform="translate(237,352)"/>
<path d="M0 0 C4.75 0.75 4.75 0.75 7 3 C6.67 3.99 6.34 4.98 6 6 C3.97945196 4.35830472 1.97956942 2.69088222 0 1 C0 0.67 0 0.34 0 0 Z " fill="#F4B68A" transform="translate(216,337)"/>
<path d="M0 0 C2 3 2 3 1.625 5.1875 C1.41875 5.785625 1.2125 6.38375 1 7 C-0.32 5.35 -1.64 3.7 -3 2 C-2.01 1.34 -1.02 0.68 0 0 Z " fill="#F6BA8D" transform="translate(206,323)"/>
<path d="M0 0 C1.32 0.33 2.64 0.66 4 1 C4.33 2.98 4.66 4.96 5 7 C3.29115995 5.37660195 1.62553283 3.70680947 0 2 C0 1.34 0 0.68 0 0 Z " fill="#F4B589" transform="translate(187,305)"/>
<path d="M0 0 C0.66 0 1.32 0 2 0 C1.34 2.97 0.68 5.94 0 9 C-0.33 9 -0.66 9 -1 9 C-1.09765625 2.84765625 -1.09765625 2.84765625 -1 1 C-0.67 0.67 -0.34 0.34 0 0 Z " fill="#F7D599" transform="translate(340,244)"/>
</svg>
